<?xml version="1.0" standalone="no"?>
<!DOCTYPE svg PUBLIC "-//W3C//DTD SVG 20010904//EN"
 "http://www.w3.org/TR/2001/REC-SVG-20010904/DTD/svg10.dtd">
<svg version="1.0" xmlns="http://www.w3.org/2000/svg"
 width="708.000000pt" height="352.000000pt" viewBox="0 0 708.000000 352.000000"
 preserveAspectRatio="xMidYMid meet">

<g transform="translate(0.000000,352.000000) scale(0.100000,-0.100000)"
fill="#000000" stroke="none">
<path d="M910 2769 c-61 -25 -110 -94 -110 -158 0 -104 80 -181 188 -181 105
0 188 106 168 215 -8 43 -59 103 -103 121 -37 16 -107 17 -143 3z m137 -59
c39 -24 56 -53 56 -100 0 -71 -53 -130 -118 -130 -41 0 -95 30 -116 64 -67
109 67 234 178 166z"/>
<path d="M952 2683 c2 -12 14 -19 36 -21 27 -3 34 -8 39 -33 7 -37 33 -39 33
-1 0 15 -4 32 -8 38 -22 34 -106 48 -100 17z"/>
<path d="M3033 2651 c-83 -38 -96 -130 -27 -190 60 -54 162 -38 204 32 64 105
-58 213 -177 158z"/>
<path d="M4380 2090 l0 -510 105 0 105 0 0 198 c0 268 15 316 112 357 79 33
171 5 204 -61 17 -34 19 -66 22 -266 l3 -228 106 0 105 0 -4 263 c-4 243 -6
266 -26 319 -28 70 -80 118 -156 147 -100 37 -236 23 -320 -34 -20 -14 -39
-25 -41 -25 -3 0 -5 79 -5 175 l0 175 -105 0 -105 0 0 -510z"/>
<path d="M5340 2127 c0 -398 3 -422 58 -480 54 -57 97 -72 207 -72 76 0 110 4
141 18 l41 19 -27 71 c-19 48 -33 71 -42 68 -7 -3 -36 -7 -63 -9 -40 -3 -56 1
-75 16 -25 20 -25 23 -28 201 l-4 181 91 0 91 0 0 80 0 80 -90 0 -89 0 -3 93
-3 92 -102 3 -103 3 0 -364z"/>
<path d="M1635 2316 c-52 -16 -98 -41 -114 -60 -22 -26 -31 -18 -31 24 l0 40
-100 0 -100 0 0 -370 0 -370 105 0 105 0 0 198 c0 268 15 316 112 357 75 31
162 8 200 -54 22 -34 23 -47 26 -268 l4 -233 105 0 105 0 -4 258 c-5 300 -13
340 -82 408 -75 75 -220 105 -331 70z"/>
<path d="M2379 2308 c-128 -45 -179 -108 -179 -220 0 -72 19 -111 72 -150 47
-35 78 -45 211 -68 65 -11 126 -24 136 -30 39 -20 34 -63 -11 -94 -40 -28
-165 -21 -270 14 -50 17 -92 29 -94 27 -5 -4 -64 -135 -64 -141 0 -9 108 -49
169 -62 203 -43 406 6 474 115 31 50 32 166 1 208 -45 60 -92 83 -240 112
-161 33 -171 36 -179 62 -30 95 157 120 336 45 12 -5 23 9 48 63 18 39 30 75
26 81 -15 24 -142 53 -255 57 -101 3 -123 1 -181 -19z"/>
<path d="M3587 2306 c-108 -45 -156 -89 -208 -186 -21 -39 -24 -59 -24 -145 0
-89 3 -106 28 -156 84 -172 315 -255 482 -174 27 13 60 32 73 41 22 16 22 16
22 -27 -1 -85 -49 -154 -127 -180 -77 -25 -256 4 -326 53 -16 11 -30 19 -31
17 -2 -2 -22 -37 -44 -77 l-41 -73 32 -19 c93 -57 226 -85 372 -78 156 8 248
52 313 148 58 86 62 116 62 512 l0 358 -100 0 -100 0 0 -47 0 -47 -27 26 c-55
51 -111 71 -208 75 -78 3 -98 0 -148 -21z m281 -170 c62 -32 92 -87 92 -167 0
-57 -16 -92 -57 -130 -91 -84 -262 -56 -319 53 -19 36 -18 122 2 165 20 40 65
77 114 92 43 13 132 6 168 -13z"/>
<path d="M6044 2310 c-70 -23 -149 -86 -170 -137 -18 -42 -18 -125 0 -166 31
-72 99 -107 270 -136 150 -26 180 -43 160 -96 -24 -61 -223 -60 -354 4 l-39
19 -36 -76 c-40 -84 -42 -80 42 -112 80 -30 175 -43 281 -37 115 6 154 17 219
60 64 43 93 95 93 170 0 131 -53 173 -273 218 -177 36 -212 63 -151 120 24 22
33 24 122 24 68 -1 110 -6 142 -19 25 -9 51 -18 58 -19 7 -1 28 30 46 69 l34
72 -37 16 c-109 48 -299 60 -407 26z"/>
<path d="M855 2308 c-3 -7 -4 -173 -3 -368 l3 -355 123 -3 122 -3 -2 368 -3
368 -118 3 c-89 2 -119 -1 -122 -10z m195 -358 l0 -320 -75 0 -75 0 0 320 0
320 75 0 75 0 0 -320z"/>
<path d="M2990 1950 l0 -370 105 0 105 0 0 370 0 370 -105 0 -105 0 0 -370z"/>
<path d="M4685 1370 c4 -6 11 -8 16 -5 14 9 11 15 -7 15 -8 0 -12 -5 -9 -10z"/>
<path d="M4870 1280 c0 -60 4 -100 10 -100 6 0 10 24 10 53 0 60 12 77 51 77
35 0 42 -12 50 -80 l6 -55 2 61 c1 44 -3 65 -14 74 -17 14 -52 17 -77 6 -15
-7 -18 -3 -18 28 0 20 -4 36 -10 36 -6 0 -10 -40 -10 -100z"/>
<path d="M5142 1273 c0 -54 3 -84 5 -67 4 30 7 32 55 36 62 6 93 36 83 77 -9
38 -32 51 -92 51 l-53 0 2 -97z m110 70 c42 -37 10 -83 -58 -83 l-44 0 0 43
c0 24 3 47 7 50 13 13 77 7 95 -10z"/>
<path d="M6070 1274 c0 -61 4 -93 10 -89 6 3 10 17 10 29 0 20 6 24 47 29 74
8 107 63 63 107 -15 15 -33 20 -75 20 l-55 0 0 -96z m114 70 c19 -18 21 -55 4
-72 -7 -7 -31 -12 -54 -12 l-42 0 -4 46 c-2 25 -1 47 1 50 11 11 81 2 95 -12z"/>
<path d="M4760 1282 c0 -47 5 -83 12 -90 15 -15 45 -16 53 -2 4 6 -4 9 -17 7
-21 -2 -23 2 -26 55 -3 52 -1 57 20 61 l23 4 -22 2 c-16 1 -23 7 -23 21 0 11
-4 20 -10 20 -6 0 -10 -33 -10 -78z"/>
<path d="M6440 1356 c-3 -2 -3 -42 0 -88 5 -82 5 -83 33 -86 15 -2 27 2 27 8
0 6 -5 8 -10 5 -22 -13 -40 17 -40 66 0 44 2 49 23 50 20 0 20 1 3 8 -11 4
-22 15 -26 25 -3 9 -8 15 -10 12z"/>
<path d="M4412 1267 c-2 -64 -1 -68 24 -79 19 -9 33 -9 57 0 21 8 35 8 41 2
16 -16 62 -11 79 8 19 21 24 122 7 122 -5 0 -10 -25 -10 -55 0 -44 -4 -56 -20
-65 -14 -8 -26 -8 -40 0 -16 9 -20 21 -20 65 0 30 -4 55 -10 55 -5 0 -10 -22
-10 -49 0 -115 -85 -106 -93 9 -3 54 -3 54 -5 -13z"/>
<path d="M5352 1318 c-40 -20 -46 -90 -10 -120 28 -24 98 -22 98 3 0 5 -11 4
-25 -1 -30 -12 -75 3 -75 24 0 11 15 17 50 22 28 4 53 11 56 15 10 17 -6 46
-32 57 -29 14 -32 14 -62 0z m73 -24 c21 -22 11 -30 -47 -38 -52 -8 -61 3 -31
36 20 22 56 23 78 2z"/>
<path d="M5501 1255 c1 -78 2 -79 9 -27 9 60 23 82 54 82 34 0 46 -20 46 -77
0 -29 5 -53 10 -53 11 0 14 88 4 115 -10 24 -49 36 -81 24 -20 -7 -28 -6 -35
3 -4 7 -7 -22 -7 -67z"/>
<path d="M5692 1255 c1 -72 1 -75 7 -29 7 59 24 84 55 84 34 0 46 -20 46 -77
0 -29 5 -53 10 -53 11 0 14 88 4 115 -10 24 -49 36 -81 24 -20 -7 -28 -6 -35
3 -4 7 -7 -22 -6 -67z"/>
<path d="M6300 1323 c-51 -19 -68 -85 -30 -123 45 -45 120 -11 120 53 0 47
-49 85 -90 70z m68 -45 c24 -51 -28 -104 -73 -74 -33 21 -40 52 -20 82 23 35
74 30 93 -8z"/>
<path d="M4693 1250 c0 -41 2 -58 4 -37 2 20 2 54 0 75 -2 20 -4 3 -4 -38z"/>
<path d="M5881 1270 c-1 -64 10 -80 54 -80 17 0 36 5 43 12 9 9 12 7 12 -9 0
-44 -47 -66 -91 -43 -11 6 -19 7 -19 1 0 -24 91 -29 110 -5 17 20 27 174 11
174 -6 0 -11 -18 -11 -43 0 -62 -38 -94 -80 -67 -8 5 -17 32 -21 62 l-6 53 -2
-55z"/>
</g>
</svg>
